<?xml version="1.0" encoding="utf-8"?>
<!-- Generator: Adobe Illustrator 22.0.1, SVG Export Plug-In . SVG Version: 6.00 Build 0)  -->
<svg version="1.1" id="Livello_1" xmlns="http://www.w3.org/2000/svg" xmlns:xlink="http://www.w3.org/1999/xlink" x="0px" y="0px"
	 viewBox="0 0 20.2 36.8" style="enable-background:new 0 0 20.2 36.8;" xml:space="preserve">
<style type="text/css">
	.st0{fill:#378E2B;}
</style>
<path class="st0" d="M5,21.6v12.6c0,1.4-1.1,2.5-2.5,2.5c-1.4,0-2.5-1.1-2.5-2.5V13.1l0,0c0-2,0.4-3.9,1.3-5.8
	c1.5-3.1,4.2-5.5,7.5-6.6c3.3-1.1,6.8-0.9,10,0.7C20.1,2,20.6,3.5,20,4.7c-0.6,1.3-2.1,1.8-3.4,1.1c-1.9-0.9-4.1-1.1-6.1-0.4
	c-2,0.7-3.7,2.1-4.6,4C5.3,10.7,5,11.9,5,13.1v4h10c1.3,0,2.3,1,2.3,2.3s-1,2.3-2.3,2.3L5,21.6C5,21.6,5,21.6,5,21.6z"/>
</svg>
