<?xml version="1.0" encoding="utf-8"?>
<!-- Generator: Adobe Illustrator 21.1.0, SVG Export Plug-In . SVG Version: 6.00 Build 0)  -->
<svg version="1.1" id="Livello_1" xmlns="http://www.w3.org/2000/svg" xmlns:xlink="http://www.w3.org/1999/xlink" x="0px" y="0px"
	 viewBox="0 0 1288 369" style="enable-background:new 0 0 1288 369;" xml:space="preserve">
<style type="text/css">
	.st0{fill:#FFFFFF;}
</style>
<path class="st0" d="M531.6,227.3c-34,0-61.7-27.7-61.7-61.7s27.7-61.7,61.7-61.7c34,0,61.7,27.7,61.7,61.7S565.6,227.3,531.6,227.3
	z M531.6,127.7c-20.9,0-37.9,17-37.9,37.9s17,37.9,37.9,37.9c20.9,0,37.9-17,37.9-37.9S552.5,127.7,531.6,127.7z M1284.5,209.3
	c4.6-4.6,4.6-12.2,0-16.8c-4.6-4.6-12.2-4.6-16.8,0c-14.8,14.8-38.8,14.8-53.6,0c-14.8-14.8-14.8-38.9,0-53.6
	c7.2-7.2,16.7-11.1,26.8-11.1c10.1,0,19.7,3.9,26.8,11.1c4.6,4.6,12.2,4.6,16.8,0c4.6-4.6,4.6-12.2,0-16.8
	c-11.7-11.7-27.1-18.1-43.6-18.1c-16.5,0-32,6.4-43.6,18.1c-24.1,24.1-24.1,63.2,0,87.3c12,12,27.8,18,43.6,18
	C1256.7,227.4,1272.5,221.4,1284.5,209.3z M330.8,165.7c0,34,27,61.7,60.3,61.7c14.3,0,26.8-5.1,36.5-13.7v1.8
	c0,6.6,5.3,11.9,11.9,11.9s11.9-5.3,11.9-11.9V61.2c0-6.6-5.3-11.9-11.9-11.9s-11.9,5.3-11.9,11.9v56.5
	c-9.7-8.5-22.2-13.7-36.5-13.7C357.9,104,330.8,131.7,330.8,165.7z M354.6,165.7c0-20.9,16.4-37.9,36.5-37.9s36.5,17,36.5,37.9
	s-16.4,37.9-36.5,37.9S354.6,186.6,354.6,165.7z M781,151.9c-0.1-26.4-21.6-47.9-48.1-47.9c-14.4,0-27.4,6.4-36.2,16.5
	c-8.8-10.1-21.7-16.5-36.2-16.5c-26.5,0-48,21.5-48.1,48l0,0.1v63.4c0,6.6,5.3,11.9,11.9,11.9c6.6,0,11.9-5.3,11.9-11.9V152l0,0
	c0-13.4,10.9-24.3,24.3-24.3s24.3,10.9,24.3,24.3l0,0v63.4c0,6.6,5.3,11.9,11.9,11.9c6.6,0,11.9-5.3,11.9-11.9V152l0,0
	c0-13.4,10.9-24.3,24.3-24.3c13.4,0,24.3,10.9,24.3,24.3l0,0v63.4c0,6.6,5.3,11.9,11.9,11.9c6.6,0,11.9-5.3,11.9-11.9V152
	C781,152,781,151.9,781,151.9z M1159.4,215.4v-99.6c0-6.6-5.3-11.9-11.9-11.9c-6.6,0-11.9,5.3-11.9,11.9v99.6
	c0,6.6,5.3,11.9,11.9,11.9C1154.1,227.3,1159.4,222,1159.4,215.4z M1147.5,49.3c-8.4,0-15.3,6.8-15.3,15.3s6.8,15.3,15.3,15.3
	c8.4,0,15.3-6.8,15.3-15.3S1156,49.3,1147.5,49.3z M1035.2,191c0-25.3-26.4-31.5-45-35.8c-21.1-4.9-28.6-8.1-28.6-16
	c0-6.6,8.3-12,21.4-12c10.1,0,19.9,2.6,29.3,7.8c5.6,3.1,12.6,1,15.7-4.6c3.1-5.6,1-12.6-4.6-15.7c-12.9-7-26.5-10.6-40.5-10.6
	c-24.2,0-45.4,15.6-45.4,35.1c0,27.7,27.8,33.9,47.4,38.5c18.5,4.3,26.2,7.9,26.2,13.9c0,9.8-13.1,12.5-24.4,12.5
	c-12.7,0-22.2-3.2-34.9-11.7c-5.3-3.5-12.5-2.1-16.1,3.2c-3.6,5.3-2.1,12.5,3.2,16.1c16.6,11.1,30.4,15.6,47.8,15.6
	C1019.6,227.3,1035.2,209.6,1035.2,191z M1103.1,203.6c-13.4,0-23.1-10.9-23.1-24.3v-51.4h24.7c6,0,10.8-4.8,10.8-10.8
	c0-6-4.9-10.8-10.8-10.8h-24.7V79.7c0-6.6-5.3-11.9-11.9-11.9s-11.9,5.3-11.9,11.9v99.6c0,26.5,20.3,48.1,46.8,48.1
	c6.6,0,11.9-5.3,11.9-11.9C1115,208.9,1109.7,203.6,1103.1,203.6z M919,160.5c0-33.9-30.3-56.7-58.5-56.7
	c-33.9,0-61.5,27.6-61.5,61.5c0,35.3,26.9,62,62.6,62c18.9,0,33.1-6.8,39.8-10.8c3.2-1.9,5.8-5.7,5.8-9.9c0-5.4-4.4-10.6-10.8-10.6
	c-1.9,0-4.2,0.7-6,1.6c-7.3,4.1-17.2,8.5-28.7,8.5c-18.4,0-34.5-11.1-38.3-29.5h80.8C912,176.6,919,169.1,919,160.5z M823.3,154.9
	c3-17.7,19.5-30.3,37.2-30.3c18.8,0,33.3,16,36,30.3H823.3z M171.4,215.4v-99.6c0-6.6-5.3-11.9-11.9-11.9s-11.9,5.3-11.9,11.9v99.6
	c0,6.6,5.3,11.9,11.9,11.9S171.4,222,171.4,215.4z M312.9,161.9c-0.4-32-26.5-58-58.6-58c-32.4,0-58.7,26.3-58.7,58.7l0,0v52.8
	c0,6.6,5.3,11.9,11.9,11.9s11.9-5.3,11.9-11.9v-52.8l0,0c0-19.2,15.7-34.9,34.9-34.9c19.2,0,34.9,15.7,34.9,34.9c0,0.1,0,0.2,0,0.3
	v52.5c0,6.6,5.3,11.9,11.9,11.9s11.9-5.3,11.9-11.9v-52.8C312.9,162.4,312.9,162.2,312.9,161.9z M159.5,49.3
	c-8.4,0-15.3,6.8-15.3,15.3s6.8,15.3,15.3,15.3s15.3-6.8,15.3-15.3S167.9,49.3,159.5,49.3z M87.4,245.5H10.7
	c-6,0-10.8,4.8-10.8,10.8c0,6,4.8,10.8,10.8,10.8h76.7c6,0,10.8-4.8,10.8-10.8C98.2,250.4,93.4,245.5,87.4,245.5z M60.9,156.1v59.4
	c0,6.6-5.3,11.9-11.9,11.9s-11.9-5.3-11.9-11.9v-99.7h0c0-9.2,2-18.5,6.3-27.3c7.3-14.8,19.8-25.8,35.4-31.1
	c15.6-5.3,32.3-4.2,47,3.1c5.9,2.9,8.3,10,5.4,15.9c-2.9,5.9-10,8.3-15.9,5.4c-9.1-4.5-19.3-5.1-28.9-1.9C77,83.1,69.2,89.9,64.8,99
	c-2.7,5.4-3.9,11.1-3.9,16.8v18.7h47c6,0,10.8,4.8,10.8,10.8s-4.8,10.8-10.8,10.8H60.9z"/>
<path class="st0" d="M1288,368.6h-101.5V267.1H1288V368.6z M1268.7,311.9L1268.7,311.9L1268.7,311.9L1268.7,311.9
	c2.1-4.1,4.6-19.4,3.5-22.2l0,0l0,0l0,0c3.8-2.5,3.8-3.4,4.7-5.1l0,0l0,0l0,0c-3.8,0.3-5.9,0.3-8,1c-5.2-3.2-16-6.5-24.8-7.1l0,0
	l0,0l0,0c2.7,1.1,13.9,7.1,15.3,9.1c-6,0.8-17.2,4.2-22.9,7.2l0,0l0,0l0,0c6.5-1.5,15.7-2.2,21.9-2.5c-2.5,3.6-3.8,5.4-7.8,9.7
	c6.8-4,8.7-4.3,15-8C1268.1,297.4,1268.7,305.4,1268.7,311.9z M1219.9,348.7c-3.6-1.3-6.2-2.9-9.1-5.6l0,0l0,0l0,0l0,0l0,0l0,0l0,0
	l0,0l0,0l0,0l0,0l0,0l0,0l0,0l0,0l0,0l0,0l0,0l0,0l0,0l0,0l0,0l0,0l0,0l0,0l0,0l0,0l0,0l0,0l0,0l0,0c0.8-2.3,1.8-4.2,3.4-6.5l0,0
	l0,0l0,0l0,0l0,0l0,0l0,0l0,0l0,0l0,0l0,0l0,0l0,0l0,0l0,0l0,0l0,0l0,0l0,0l0,0l0,0l0,0l0,0l0,0l0,0l0,0l0,0l0,0l0,0l0,0l0,0
	c-2.9,0.4-5.1,0.8-7.6,1.2l0,0l0,0l0,0l0,0l0,0l0,0l0,0l0,0l0,0l0,0l0,0l0,0l0,0l0,0l0,0l0,0l0,0l0,0l0,0l0,0l0,0l0,0l0,0l0,0l0,0
	l0,0l0,0l0,0l0,0l0,0l0,0c-2.1-3.7-3-7.1-4.1-11.9l0,0l0,0l0,0l0,0l0,0l0,0l0,0l0,0l0,0l0,0l0,0l0,0l0,0l0,0l0,0
	c-0.5,5.1-0.8,8.7,0,12.8l0,0l0,0l0,0l0,0l0,0l0,0l0,0l0,0l0,0l0,0l0,0l0,0l0,0l0,0l0,0l0,0l0,0l0,0l0,0l0,0l0,0l0,0l0,0l0,0l0,0
	l0,0l0,0l0,0l0,0l0,0l0,0c-2.3,0.6-3.9,1.2-5.8,2.1l0,0l0,0l0,0l0,0l0,0l0,0l0,0l0,0l0,0l0,0l0,0l0,0l0,0l0,0l0,0l0,0l0,0l0,0l0,0
	l0,0l0,0l0,0l0,0l0,0l0,0l0,0l0,0l0,0l0,0l0,0l0,0c2.6,1.6,4.8,2.9,7.8,4.2l0,0l0,0l0,0l0,0l0,0l0,0l0,0l0,0l0,0l0,0l0,0l0,0l0,0
	l0,0l0,0l0,0l0,0l0,0l0,0l0,0l0,0l0,0l0,0l0,0l0,0l0,0l0,0l0,0l0,0l0,0l0,0c1.6,3.5,3.3,5.8,5.9,8.5l0,0l0,0l0,0l0,0l0,0l0,0l0,0
	l0,0l0,0l0,0l0,0l0,0l0,0l0,0l0,0l0,0l0,0l0,0l0,0l0,0l0,0l0,0l0,0l0,0l0,0l0,0l0,0l0,0l0,0l0,0l0,0c-0.7-2.3-0.8-4.1-0.6-6.4l0,0
	l0,0l0,0l0,0l0,0l0,0l0,0l0,0l0,0l0,0l0,0l0,0l0,0l0,0l0,0l0,0l0,0l0,0l0,0l0,0l0,0l0,0l0,0l0,0l0,0l0,0l0,0l0,0l0,0l0,0l0,0
	C1213.2,348.1,1216.1,348.6,1219.9,348.7z M1219.6,302.7L1219.6,302.7L1219.6,302.7L1219.6,302.7c0,0-2.2-0.2-5.7-0.1l0,0l0,0l0,0
	l0,0l0,0l0,0l0,0c-3.5,0.1-8.2,1-10,1.7l0,0l0,0l0,0c3.5,0.2,8.2,1.1,10,2.9l0,0l0,0l0,0l0,0l0,0l0,0l0,0c0,0-5.2,4.7-10.4,15.1l0,0
	l0,0l0,0l0,0l0,0l0,0l0,0c0,0,9.4-8.8,13.5-11l0,0l0,0l0,0l0,0l0,0l0,0l0,0c0,0,2.1,7.2,3.6,10.7l0,0l0,0l0,0l0,0l0,0l0,0l0,0
	c0,0,1.3-8.2,3.5-13l0,0l0,0l0,0l0,0l0,0l0,0l0,0c0,0,0.6-0.4,3.6-0.7l0,0l0,0l0,0c3-0.3,7.3-0.5,15.4,1l0,0l0,0l0,0l0,0l0,0l0,0
	l0,0c0,0-7.5-4.8-16.8-6.1l0,0l0,0l0,0c0.4-1.2,1.7-4,2.8-5.4l0,0l0,0l0,0l0,0C1227.6,298.1,1222.7,300.2,1219.6,302.7z M1239,342.3
	c-1.6,2.3-3,4-4.8,6l0,0l0,0l0,0l0,0l0,0l0,0l0,0l0,0l0,0l0,0l0,0l0,0l0,0l0,0l0,0l0,0l0,0l0,0l0,0l0,0l0,0l0,0l0,0l0,0l0,0l0,0l0,0
	l0,0l0,0l0,0l0,0c-3.1,0.8-5.6,1.2-8.6,1.2l0,0l0,0l0,0l0,0l0,0l0,0l0,0l0,0l0,0l0,0l0,0l0,0l0,0l0,0l0,0l0,0l0,0l0,0l0,0l0,0l0,0
	l0,0l0,0l0,0l0,0l0,0l0,0l0,0l0,0l0,0l0,0c1.9,0.9,3.7,1.5,5.6,1.9l0,0l0,0l0,0l0,0l0,0l0,0l0,0l0,0l0,0l0,0l0,0l0,0l0,0l0,0l0,0
	l0,0l0,0l0,0l0,0l0,0l0,0l0,0l0,0l0,0l0,0l0,0l0,0l0,0l0,0l0,0l0,0c-1.9,1.8-3.6,3.1-5.5,4.3l0,0l0,0l0,0l0,0l0,0l0,0l0,0l0,0l0,0
	l0,0l0,0l0,0l0,0l0,0l0,0l0,0l0,0l0,0l0,0l0,0l0,0l0,0l0,0l0,0l0,0l0,0l0,0l0,0l0,0l0,0l0,0c3.2-0.8,7.4-2.1,10.5-3.9l0,0l0,0l0,0
	l0,0l0,0l0,0l0,0l0,0l0,0l0,0l0,0l0,0l0,0l0,0l0,0l0,0l0,0l0,0l0,0l0,0l0,0l0,0l0,0l0,0l0,0l0,0l0,0l0,0l0,0l0,0l0,0
	c1.6,0.1,3.1-0.1,4.3-0.3l0,0l0,0l0,0l0,0l0,0l0,0l0,0l0,0l0,0l0,0l0,0l0,0l0,0l0,0l0,0l0,0l0,0l0,0l0,0l0,0l0,0l0,0l0,0l0,0l0,0
	l0,0l0,0l0,0l0,0l0,0l0,0c-0.3-0.9-0.5-1.6-0.7-2.9l0,0l0,0l0,0l0,0l0,0l0,0l0,0l0,0l0,0l0,0l0,0l0,0l0,0l0,0l0,0l0,0l0,0l0,0l0,0
	l0,0l0,0l0,0l0,0l0,0l0,0l0,0l0,0l0,0l0,0l0,0l0,0c2.9-2.3,5.1-4.3,7.5-6.8l0,0l0,0l0,0l0,0l0,0l0,0l0,0l0,0l0,0l0,0l0,0l0,0l0,0
	l0,0l0,0l0,0l0,0l0,0l0,0l0,0l0,0l0,0l0,0l0,0l0,0l0,0l0,0l0,0l0,0l0,0l0,0c-2.6,1.8-4.8,3.1-7.8,4.5l0,0l0,0l0,0l0,0l0,0l0,0l0,0
	l0,0l0,0l0,0l0,0l0,0l0,0l0,0l0,0l0,0l0,0l0,0l0,0l0,0l0,0l0,0l0,0l0,0l0,0l0,0l0,0l0,0l0,0l0,0l0,0
	C1239.2,345,1239.1,343.9,1239,342.3z"/>
<path class="st0" d="M512,322.9c-0.2,3.7-0.4,11.4-0.5,15.8c-4,2-10.3,3.2-16.3,3.2c-13.8,0-22.6-8.6-22.6-19.3
	c0-11.2,9.2-19.7,24.3-19.7c3.4,0,8.6,0.6,12.3,1.5l-2.7,7.3c-2.6-1.6-6.8-2.9-9.7-2.9c-8.7,0-11.8,7.7-11.8,13.9
	c0,10.4,5.6,13.8,11.8,13.8c0.8,0,3.2-0.1,3.9-0.3c0-4.5-0.1-10.2-0.4-13.2H512z M519.3,303.8c0.6,3.8,0.6,11.4,0.6,17.7
	c0,7.4-0.1,14-0.7,19.5h12.4c-0.6-5.6-0.6-16.3-0.6-19.5c0-2.5,0.1-7.9,0.3-12.5c0.9,0,3.2,0,4.4,0c2.7,0,8.4,1.4,8.4,6.4
	c0,5.1-4.6,7.6-9.9,6.9c4.4,6.6,8.9,14.3,11.3,18.7h13.3c-1.8-1.9-10.8-13.6-11.9-15.6c5.4-2.1,8.8-5.4,8.8-10
	c0-8.6-9.7-11.5-17.9-11.5H519.3z M707.2,342c11.5,0,20.2-7.9,20.2-19.6c0-11.7-8.7-19.6-20.2-19.6c-11.6,0-20.3,7.9-20.3,19.6
	C686.9,334,695.6,342,707.2,342 M707.2,307.6c5.3,0,8.6,5.2,8.6,14.8c0,9.6-3.3,14.7-8.6,14.7c-5.4,0-8.8-5.1-8.8-14.7
	C698.4,312.8,701.8,307.6,707.2,307.6 M562.9,303.8c0.4,2.6,0.5,8.3,0.5,11.8V329c0,10.5,6.6,12.8,17.4,12.8
	c11.9,0,17.9-3.7,17.9-12.3v-10.5c0-6,0-12,0.4-15.3h-10.2c0.3,1.6,0.3,2,0.3,5.8v18c0,7.6-4.1,9.2-8.2,9.2c-4.7,0-6.3-2.8-6.3-7.6
	v-17.7c0-2.6,0.1-5.2,0.3-7.7H562.9z M606.6,303.7c0.5,3.5,0.6,12.3,0.6,17.7c0,6-0.1,14.4-0.6,19.5h12.2c-0.3-3.5-0.3-9.8-0.5-14.9
	c0.6,0.1,2.9,0.1,3.7,0.1c14,0,20.9-3.8,20.9-11.4c0-8.6-9.7-10.9-17.8-10.9H606.6z M621.6,308.9c4.2,0,9.8,0.9,9.8,5.8
	c0,5.1-5.4,6.1-9.3,6.1c-1.3,0-3.2,0-3.6-0.1c0-1.3-0.1-2.7-0.1-4.5c0-2.4,0.1-4.9,0.1-7.3L621.6,308.9z M647.2,303.7
	c0.5,3.5,0.6,12.3,0.6,17.7c0,6-0.1,14.4-0.6,19.5h12.2c-0.3-3.5-0.3-9.8-0.5-14.9c0.6,0.1,2.9,0.1,3.7,0.1c14,0,20.9-3.8,20.9-11.4
	c0-8.6-9.7-10.9-17.8-10.9H647.2z M662.2,308.9c4.2,0,9.8,0.9,9.8,5.8c0,5.1-5.4,6.1-9.3,6.1c-1.3,0-3.2,0-3.6-0.1
	c0-1.3-0.1-2.7-0.1-4.5c0-2.4,0.1-4.9,0.1-7.3L662.2,308.9z M746.9,303.7c0.5,4.8,0.6,12.6,0.6,17.7c0,7.7-0.1,14.7-0.6,19.5h20.2
	c8.8,0,18.2-2.6,18.2-10.3c0-4.4-3.3-7.8-9.2-9.9c4.4-1.5,7.4-4.7,7.4-8.1c0-6.4-7.5-8.9-14.4-8.9H746.9z M763.4,308.5
	c5.3,0,8.6,1.5,8.6,5.1c0,3.3-3.5,4.7-6.1,4.7h-2.2l-2.2,5.6h3.1c5.2,0,9.1,2,9.1,6.3c0,3.9-3,5.7-9.3,5.7h-5.4
	c-0.3-5.3-0.3-7.8-0.3-14.5c0-5.5,0.1-7.9,0.3-12.7C759.8,308.6,761.5,308.5,763.4,308.5 M816.1,303.8v21.6
	c-0.3-0.8-0.5-1.3-1.1-2.3l-11.9-19.3h-11.3c0.3,4.2,0.5,14.2,0.5,17.7c0,3.2-0.1,13.9-0.7,19.5h10c-0.4-3.2-0.5-9.5-0.5-14v-11.8
	c0.3,1.8,1.1,3.4,2.3,5.1l14.1,20.7h8.7c-0.5-5.1-0.6-16.1-0.6-19.5c0-3.7,0.2-13.4,0.6-17.7H816.1z M834.8,303.7
	c0.5,3.5,0.6,12.3,0.6,17.7c0,6-0.1,14.4-0.6,19.5H847c-0.3-3.5-0.3-9.8-0.5-14.9c0.6,0.1,2.9,0.1,3.7,0.1c14,0,20.9-3.8,20.9-11.4
	c0-8.6-9.7-10.9-17.8-10.9H834.8z M849.8,308.9c4.2,0,9.8,0.9,9.8,5.8c0,5.1-5.4,6.1-9.3,6.1c-1.3,0-3.2,0-3.6-0.1
	c0-1.3-0.1-2.7-0.1-4.5c0-2.4,0.1-4.9,0.1-7.3L849.8,308.9z M891,303.7c0.5,3.5,0.6,12.3,0.6,17.7c0,6-0.1,14.4-0.6,19.5h12.2
	c-0.4-3.5-0.3-9.8-0.6-14.9c0.6,0.1,2.9,0.1,3.7,0.1c14,0,20.9-3.8,20.9-11.4c0-8.6-9.7-10.9-17.8-10.9H891z M906,308.9
	c4.2,0,9.8,0.9,9.8,5.8c0,5.1-5.5,6.1-9.4,6.1c-1.2,0-3.2,0-3.6-0.1c-0.1-1.3-0.1-2.7-0.1-4.5c0-2.4,0.1-4.9,0.1-7.3L906,308.9z
	 M940.3,303.8c-2.2,5.9-14.4,32.5-16.5,37.1h10.6c0.9-2.6,1.8-5,3-8.1c2-0.1,3.8-0.1,6.3-0.1c2.6,0,4.5,0,6.3,0.1
	c1.8,4.7,2.8,6.7,3.2,8.1h12.2c-2.8-6-15.1-32.7-16.5-37.1H940.3z M947.9,327.1c-1.6,0.1-2.6,0.1-4.3,0.1c-1.2,0-3.1-0.1-4.5-0.1
	c1.1-3.1,3.3-8,4.3-11.2C944.5,319.1,946.5,323.5,947.9,327.1 M969.9,303.8c0.5,3.8,0.6,11.4,0.6,17.7c0,7.4-0.1,14-0.7,19.5h12.4
	c-0.6-5.6-0.6-16.3-0.6-19.5c0-2.5,0.1-7.9,0.2-12.5c0.9,0,3.2,0,4.4,0c2.8,0,8.4,1.4,8.4,6.4c0,5.1-4.6,7.6-9.9,6.9
	c4.4,6.6,8.9,14.3,11.2,18.7h13.3c-1.8-1.9-10.8-13.6-11.9-15.6c5.4-2.1,8.8-5.4,8.8-10c0-8.6-9.7-11.5-17.8-11.5H969.9z
	 M1014.3,303.8c0.2,4.2,0.4,14.2,0.4,17.7c0,3.1,0,13.8-0.7,19.4h12.3c-0.5-5.1-0.5-16.1-0.5-19.4c0-3.6,0.2-13.5,0.5-17.7H1014.3z
	 M1034.3,303.7c0.5,4.8,0.6,12.6,0.6,17.7c0,7.7-0.1,14.7-0.6,19.5h20.2c8.8,0,18.2-2.6,18.2-10.3c0-4.4-3.3-7.8-9.2-9.9
	c4.4-1.5,7.4-4.7,7.4-8.1c0-6.4-7.5-8.9-14.4-8.9H1034.3z M1050.8,308.5c5.4,0,8.6,1.5,8.6,5.1c0,3.3-3.5,4.7-6.1,4.7h-2.3l-2.1,5.6
	h3.1c5.2,0,9.1,2,9.1,6.3c0,3.9-3,5.7-9.4,5.7h-5.4c-0.3-5.3-0.3-7.8-0.3-14.5c0-5.5,0.1-7.9,0.3-12.7
	C1047.2,308.6,1049,308.5,1050.8,308.5 M1090.5,303.8c-2.1,5.9-14.4,32.5-16.4,37.1h10.6c0.9-2.6,1.9-5,3-8.1c2-0.1,3.8-0.1,6.3-0.1
	c2.5,0,4.5,0,6.3,0.1c1.8,4.7,2.8,6.7,3.3,8.1h12.2c-2.8-6-15.1-32.7-16.5-37.1H1090.5z M1098.2,327.1c-1.7,0.1-2.5,0.1-4.3,0.1
	c-1.3,0-3.1-0.1-4.5-0.1c1.1-3.1,3.3-8,4.3-11.2C1094.7,319.1,1096.7,323.5,1098.2,327.1 M1134.8,302.8c-9.8,0-16.4,3.8-16.4,10.4
	c0,12,21.1,11.4,21.1,18.5c0,2.5-2.1,3.8-5,3.8c-3.6,0-7.7-1.2-15.5-4.9v9c3.3,1.2,8.1,2.3,13.2,2.3c11.4,0,18.2-4.6,18.2-11.9
	c0-11.2-21.1-11.3-21.1-17.6c0-1.3,0.3-2.9,4.5-2.9c5.3,0,9.3,2,13.4,4.3v-9.4C1144.2,303.5,1139.6,302.8,1134.8,302.8"/>
<g>
	<path class="st0" d="M-575.4,894c15,4.1,26.6,12.5,34.4,25.9c4.3,7.5,7.2,15.7,10.2,23.8c3.6,9.6,6.9,19.2,8.9,29.3
		c1.6,8,1.3,15.8-2.5,23.3c-2.2,4.4-5.6,6.7-10.7,6.4c-6.1-0.4-12.2-0.7-18.3-1.1c-2.5-0.2-5,0.6-7.6-0.1c-0.4-0.1-0.5,0.2-0.7,0.5
		c-2.1,2.6-5.1,3.6-8.3,3.6c-17,0.1-34,0.1-50.9,0.1c-9.9,0-19.8-0.1-29.7-0.2c-14.2-0.2-28.3-0.4-42.5-0.6
		c-8.2-0.2-15.6-6.8-17.8-15.6c-1.2-5-0.7-10,0-15c1.5-10.3,3.5-20.6,7.3-30.3c3.9-10.3,9.4-19.5,18.4-26.2c4.6-3.4,9.7-5.7,15-7.8
		c2-0.8,4.1-1.5,6.1-3.2c-5.8-1.5-11.1-3.3-16.3-5.7c-17-7.7-30.8-18.9-39.7-35.5c-5.7-10.6-8.6-22-9.2-33.9
		c-0.7-14.1,1.1-27.7,6.8-40.7c8.1-18.4,21.7-31.5,39.2-40.7c17.7-9.3,36.6-13.9,56.6-13c21.5,1,41.3,7.1,58.3,20.7
		c16.1,12.9,26,29.6,29.9,49.8c2.9,15.1,2.6,30-2.1,44.8c-5.7,17.8-17.3,30.9-33.1,40.5c-0.4,0.2-0.8,0.4-1.1,0.7
		C-575,893.7-575.1,893.8-575.4,894z M-595.8,899.4c7.7-3.9,15.2-8.1,22.1-13.3c11.3-8.7,20-19.3,24.6-32.9
		c3.4-9.9,4.5-20.1,3.8-30.5c-0.7-10.7-2.9-21.1-7.5-30.8c-7.9-16.7-20.3-28.8-37-36.7c-15.9-7.6-32.8-10.2-50.2-8.7
		c-14.9,1.3-29,5.7-42,13.2c-14,8-25.2,18.9-32,33.8c-6.9,15-8.3,30.8-5.9,46.9c2.3,16.1,9.6,29.7,21.5,40.8
		c10.7,10,23.4,16.7,37.2,21.4c5.5,1.9,11.2,3.3,16.9,5c0.8,0.2,2.1,0.3,2.1,1c-0.1,1.1-1.5,0.7-2.3,0.7c-3.4,0.2-6.9-0.3-10.3-0.7
		c-0.7-0.1-1.2-0.2-1.6,0.5c-2.3,3.6-5.9,5.4-9.6,6.9c-4.1,1.7-8.3,3.3-12.1,5.7c-9.3,5.7-14.7,14.5-18.5,24.4
		c-3.6,9.3-5.6,19.1-7,28.9c-0.5,3.8-1.2,7.7-0.5,11.6c1.3,6.5,6.4,11.5,13.2,11.1c3.2-0.1,6.4,0.1,9.5,0.2c10,0.2,20,0.1,30,0.4
		c6,0.2,12,0.2,18,0.3c11.1,0.3,22.2,0.4,33.3,0.8c7.9,0.3,15.8,0.4,23.7,0.7c2.9,0.1,5.9,0.5,8.8-0.2c1.2-0.3,2.3-1,2.5-2.3
		c0.3-1.4-0.3-2.5-1.4-3.3c-2.4-1.9-5.3-2.8-8.2-3.6c-5.4-1.6-11-2.2-16.5-3.4c-0.7-0.1-1.3-0.2-1.8-0.7c0.4-0.5,0.8-0.4,1.1-0.4
		c5.9-0.6,11.8,0,17.7,1c3.5,0.6,7,1.4,10,3.5c2.6,1.8,4.1,4.1,3.7,7.4c-0.1,0.9,0.2,1.2,1,1c0.6-0.1,1.3-0.2,1.9-0.3
		c2.4-0.5,3.5-2.2,2.9-4.7c-0.5-2.2-1.9-3.7-3.7-4.9c-3-2.1-6.3-3.5-9.7-5c-4.9-2.1-9.9-3.7-14.5-6.4c-0.5-0.3-1.2-0.5-0.9-1.2
		c0.2-0.6,0.9-0.3,1.4-0.3c0.3,0,0.5,0,0.8,0.1c6.3,1,12.4,2.7,18.4,5.1c1.3,0.5,2.6,1.1,4.3,1.9c-0.8-2.1-1.9-3.5-3.4-4.7
		c-2.2-1.7-4.7-3-7.4-4c-7.7-2.7-15.5-3.6-23.7-3.2c-9.4,0.4-18.3,2.4-26.8,6.3c-0.8,0.4-1.6,0.4-2.4,0.4
		c-7.1-0.1-14.1-1.4-21.1-2.5c-11-1.6-21.9-3.4-32.9-4.9c-1.6-0.2-3.5,0-4.9-1.2c0.4-0.6,0.9-0.6,1.3-0.6c5.7-0.7,11.3-0.5,17-0.1
		c1.7,0.1,2.2-0.4,2.3-2c0.3-3.9,0.8-7.9,0.9-11.8c0-1.1-0.2-2.9,0.9-3c1.1-0.1,1.4,1.6,1.7,2.7c1.2,4.1,1.8,8.2,1.2,12.4
		c-0.1,0.8-0.8,2.1,1,2.2c10.2,0.8,20.2,2.5,30.4,3.2c1.5,0.1,2.8-0.2,4.2-0.8c12.6-5.4,25.7-6.7,39.1-4.8c4.8,0.7,9.4,2.2,14,4.2
		c-1.5-9.2-3.7-17.9-4.1-27c1.5,0.9,2,2.4,2.5,3.8c3.1,7.5,5.1,15.4,6.5,23.3c0.2,1.2,0.5,1.4,1.7,1.1c2.8-0.7,5.7-0.9,8.5-1.1
		c3.4-0.2,6.7,0.1,10,1.1c0.7,0.2,1.8,0.3,1.7,1.2c-0.1,0.8-1.1,0.6-1.8,0.7c-2.4,0.4-4.8,0.2-7.3,0.4c-3.6,0.2-7.2,0.2-10.8,1.3
		c1.6,2.1,3.2,4.1,3.3,6.7c0,1.4,0.5,2.1,1.6,3c4,3.1,6.1,7,4.4,12.2c-0.4,1.3,0.3,1,1.1,1c4.7-0.3,9.4-0.7,14.1-0.7
		c3.3,0,5.2-1.5,6.4-4.2c0.5-1.2,0.9-2.4,1.2-3.6c1.7-6.8,0.7-13.5-1.1-20.2c-3.6-13.3-8.5-26.2-13.8-38.9
		c-3.4-8.1-7.9-15.3-14.7-20.9c-7.3-6-15.9-9.3-24.7-12.3c-0.8-0.3-1.3-0.1-2,0.2c-2.9,1.3-5.9,2.5-8.9,3.4c-2.8,0.8-5.5,2-9.1,1.8
		C-599.9,901.4-597.8,900.5-595.8,899.4z"/>
	<path class="st0" d="M-623.9,867.7c-13.5-0.2-26-3.4-37-11.3c-1.1-0.8-3-2-2.5-2.7c0.7-1.2,2.4,0.1,3.5,0.6
		c7,2.6,13.9,5.3,21.4,6.4c17.2,2.5,33.7,1.2,48.6-8.9c3.1-2.1,6-4.5,9-6.8c0.5-0.4,1.1-0.9,1.7-1.3c0.4-0.3,0.9-0.8,1.3-0.3
		c0.4,0.4,0,1-0.3,1.4c-1.2,2.3-2.8,4.3-4.5,6.1c-8.6,9.3-19.1,14.6-31.6,16.2C-617.6,867.4-620.7,867.7-623.9,867.7z"/>
	<path class="st0" d="M-655,777.1c-4.8-0.3-8.8,1.5-12.7,4c-0.8,0.5-1.9,1.7-2.6,0.9c-0.9-1,0.2-2.1,0.9-3c4.3-6.1,13.5-7.9,19.8-4
		c0.2,0.1,0.3,0.2,0.5,0.3c0.6,0.5,1.7,0.9,1.2,1.9c-0.3,0.8-1.4,0.4-2.1,0.4C-651.7,777.4-653.3,777.3-655,777.1z"/>
	<path class="st0" d="M-600.4,766.3c3.7,0.3,7.3,1.3,9.9,4.8c0.3,0.5,0.9,1,0.4,1.7c-0.5,0.6-1.1,0.1-1.6,0c-2.3-0.8-4.6-1.7-7.1-2
		c-3.5-0.3-6.7,0.5-9.8,1.9c-0.7,0.3-1.6,0.8-2.1,0.2c-0.7-0.8,0.1-1.6,0.6-2.2C-607.8,767.7-604.5,766.5-600.4,766.3z"/>
	<path class="st0" d="M-637.4,816.9c-0.1,2.5-0.8,5.5-2.7,8.1c-3.2,4.5-9.2,5.7-13.9,2.8c-7-4.3-9.8-14.4-6.1-21.7
		c3.4-6.7,11-8.2,16.7-3.3C-639.5,806.2-637.3,811-637.4,816.9z M-643.4,806c-4.2-5-10.9-4.8-14.2,0.5c-3.8,6.3-1.3,16,5.1,19.6
		c3.7,2.1,8.1,1.1,10.5-2.3c1.6-2.2,2.3-4.8,2.2-7.5C-639.7,812.4-641,808.9-643.4,806z"/>
	<path class="st0" d="M-607.9,806.6c-0.1-2.7,0.5-5.4,1.9-7.9c3.2-5.5,9.4-6.6,14.3-2.6c6,4.8,7.8,15.6,3.9,22.2
		c-3.7,6.1-11.1,6.6-15.7,1C-606.5,815.7-607.9,811.6-607.9,806.6z M-592.9,798.1c-3.6-3.3-8.3-2.6-10.9,1.5
		c-1.1,1.8-1.7,3.7-1.8,5.8c-0.2,5.7,1.2,10.8,6.1,14.2c2.8,2,6.1,1.5,8.5-1c2.3-2.4,2.9-5.4,3.1-8.6
		C-588.1,805.4-589.4,801.3-592.9,798.1z"/>
	<path class="st0" d="M-643.9,815.1c-0.1,4.1-2.5,7.4-5.7,7.8c-3.2,0.4-6.3-2.4-7.3-6.5c-0.6-2.5-0.4-4.8,0.8-7c2.2-4.2,7-4.7,10-1
		C-644.6,810.3-643.9,812.6-643.9,815.1z M-655.4,812.2c0.1,1.6,1.1,2.7,2.4,2.7c1.3,0,2.3-1.2,2.2-2.8c0-1.6-1-2.7-2.4-2.6
		C-654.5,809.4-655.5,810.7-655.4,812.2z"/>
	<path class="st0" d="M-591.6,809.3c-0.1,0.6-0.1,1.3-0.2,1.9c-0.6,2.6-1.7,4.7-4.5,5.3c-2.7,0.6-4.6-0.8-6-2.8
		c-2.2-3.2-2.8-6.7-1.1-10.3c1.9-4.1,6.5-4.7,9.4-1.1C-592.4,804.3-591.5,806.7-591.6,809.3z M-600.7,803.4
		c-1.6,0.2-2.1,1.3-2.1,2.7c0,1.6,1,2.8,2.2,2.8c1.3,0,2.3-1.2,2.2-2.8C-598.4,804.6-599.4,803.3-600.7,803.4z"/>
</g>
</svg>
