<?xml version="1.0" encoding="utf-8"?>
<!-- Generator: Adobe Illustrator 16.0.0, SVG Export Plug-In . SVG Version: 6.00 Build 0)  -->
<!DOCTYPE svg PUBLIC "-//W3C//DTD SVG 1.1//EN" "http://www.w3.org/Graphics/SVG/1.1/DTD/svg11.dtd">
<svg version="1.1" id="Livello_1" xmlns="http://www.w3.org/2000/svg" xmlns:xlink="http://www.w3.org/1999/xlink" x="0px" y="0px"
	 width="300px" height="92px" viewBox="0 101.5 300 92" enable-background="new 0 101.5 300 92" xml:space="preserve">
<path fill="#378E2B" d="M125.494,153.748c-7.214,0-13.091-5.877-13.091-13.091c0-7.215,5.877-13.091,13.091-13.091
	c7.214,0,13.091,5.876,13.091,13.091C138.585,147.871,132.708,153.748,125.494,153.748z M125.494,132.616
	c-4.434,0-8.042,3.607-8.042,8.042c0,4.434,3.607,8.041,8.042,8.041s8.041-3.607,8.041-8.041
	C133.535,136.223,129.928,132.616,125.494,132.616z M285.242,149.93c0.986-0.985,0.986-2.586,0-3.572
	c-0.985-0.985-2.586-0.985-3.571,0c-3.132,3.132-8.234,3.132-11.385,0c-3.132-3.132-3.132-8.252,0-11.384
	c1.513-1.513,3.537-2.358,5.684-2.358s4.169,0.845,5.684,2.358c0.985,0.985,2.586,0.985,3.571,0s0.985-2.587,0-3.572
	c-2.48-2.481-5.754-3.836-9.255-3.836s-6.792,1.355-9.256,3.836c-5.103,5.103-5.103,13.407,0,18.51
	c2.552,2.552,5.912,3.836,9.256,3.836C279.33,153.766,282.69,152.48,285.242,149.93z M82.896,140.674
	c0,7.214,5.736,13.091,12.792,13.091c3.026,0,5.684-1.091,7.742-2.903v0.387c0,1.39,1.126,2.517,2.516,2.517
	c1.39,0,2.516-1.127,2.516-2.517v-32.763c0-1.39-1.126-2.516-2.516-2.516c-1.39,0-2.516,1.126-2.516,2.516v11.983
	c-2.059-1.812-4.716-2.903-7.742-2.903C88.632,127.583,82.896,133.442,82.896,140.674z M87.946,140.674
	c0-4.434,3.466-8.041,7.742-8.041c4.276,0,7.742,3.607,7.742,8.041c0,4.434-3.466,8.042-7.742,8.042
	C91.412,148.716,87.946,145.108,87.946,140.674z M178.403,137.736c-0.018-5.613-4.575-10.17-10.188-10.17
	c-3.062,0-5.807,1.355-7.671,3.501c-1.867-2.146-4.611-3.501-7.673-3.501c-5.613,0-10.188,4.575-10.188,10.188v0.018v13.459
	c0,1.391,1.126,2.518,2.516,2.518c1.39,0,2.516-1.127,2.516-2.518v-13.459l0,0c0-2.833,2.305-5.156,5.155-5.156
	c2.833,0,5.155,2.305,5.155,5.156l0,0v13.459c0,1.391,1.127,2.518,2.518,2.518c1.389,0,2.516-1.127,2.516-2.518v-13.459l0,0
	c0-2.833,2.305-5.156,5.155-5.156c2.832,0,5.154,2.305,5.154,5.156l0,0v13.459c0,1.391,1.128,2.518,2.517,2.518
	c1.39,0,2.517-1.127,2.517-2.518v-13.459C178.403,137.753,178.403,137.753,178.403,137.736z M258.69,151.23v-21.148
	c0-1.39-1.125-2.516-2.516-2.516s-2.516,1.126-2.516,2.516v21.132c0,1.39,1.125,2.517,2.516,2.517S258.69,152.621,258.69,151.23z
	 M256.175,115.971c-1.795,0-3.237,1.46-3.237,3.237s1.461,3.238,3.237,3.238s3.237-1.46,3.237-3.238S257.97,115.971,256.175,115.971
	z M232.35,146.041c0-5.384-5.595-6.668-9.536-7.602c-4.486-1.038-6.07-1.707-6.07-3.378c0-1.407,1.777-2.534,4.54-2.534
	c2.129,0,4.223,0.545,6.229,1.654c1.197,0.651,2.675,0.211,3.326-0.968c0.65-1.196,0.211-2.674-0.968-3.325
	c-2.728-1.496-5.613-2.252-8.587-2.252c-5.12,0-9.643,3.308-9.643,7.46c0,5.877,5.895,7.197,10.064,8.164
	c3.924,0.915,5.561,1.689,5.561,2.956c0,2.094-2.798,2.639-5.173,2.639c-2.692,0-4.698-0.668-7.408-2.48
	c-1.126-0.757-2.657-0.458-3.413,0.668c-0.757,1.126-0.458,2.657,0.669,3.414c3.519,2.357,6.456,3.324,10.135,3.324
	C229.043,153.748,232.35,149.982,232.35,146.041z M246.761,148.698c-2.832,0-4.892-2.305-4.892-5.155v-10.909h5.244
	c1.268,0,2.305-1.021,2.305-2.305c0-1.284-1.037-2.305-2.305-2.305h-5.244v-5.63c0-1.39-1.125-2.516-2.516-2.516
	s-2.516,1.126-2.516,2.516v21.132c0,5.63,4.311,10.188,9.941,10.188c1.39,0,2.516-1.127,2.516-2.516
	C249.277,149.824,248.151,148.698,246.761,148.698z M207.683,139.583c0-7.197-6.423-12.018-12.424-12.018
	c-7.196,0-13.055,5.859-13.055,13.056c0,7.496,5.719,13.144,13.284,13.144c4.012,0,7.021-1.443,8.445-2.287
	c0.67-0.387,1.232-1.197,1.232-2.112c0-1.144-0.934-2.252-2.306-2.252c-0.404,0-0.896,0.158-1.284,0.352
	c-1.549,0.862-3.642,1.795-6.088,1.795c-3.906,0-7.337-2.358-8.129-6.264h17.138C206.204,142.979,207.683,141.396,207.683,139.583z
	 M187.377,138.387c0.634-3.765,4.136-6.422,7.882-6.422c3.995,0,7.073,3.396,7.638,6.422H187.377z M49.06,151.23v-21.148
	c0-1.39-1.126-2.516-2.516-2.516c-1.39,0-2.516,1.126-2.516,2.516v21.132c0,1.39,1.126,2.517,2.516,2.517
	C47.934,153.748,49.06,152.621,49.06,151.23z M79.077,139.865c-0.07-6.792-5.63-12.299-12.439-12.299
	c-6.862,0-12.44,5.578-12.44,12.44l0,0v11.208c0,1.39,1.126,2.517,2.516,2.517s2.516-1.127,2.516-2.517v-11.208l0,0
	c0-4.082,3.326-7.408,7.408-7.408c4.082,0,7.408,3.326,7.408,7.408c0,0.018,0,0.053,0,0.071v11.137c0,1.39,1.126,2.517,2.516,2.517
	c1.39,0,2.516-1.127,2.516-2.517v-11.208C79.095,139.971,79.077,139.918,79.077,139.865z M46.543,115.971
	c-1.795,0-3.237,1.46-3.237,3.237s1.46,3.238,3.237,3.238c1.794,0,3.238-1.46,3.238-3.238S48.338,115.971,46.543,115.971z
	 M31.253,157.601H14.978c-1.267,0-2.288,1.021-2.288,2.288s1.021,2.288,2.288,2.288h16.276c1.267,0,2.287-1.021,2.287-2.288
	C33.541,158.639,32.52,157.601,31.253,157.601z M25.623,138.633v12.597c0,1.391-1.126,2.518-2.516,2.518
	c-1.39,0-2.516-1.127-2.516-2.518v-21.148l0,0c0-1.953,0.422-3.924,1.337-5.789c1.548-3.132,4.206-5.49,7.513-6.599
	c3.308-1.126,6.845-0.897,9.977,0.651c1.25,0.615,1.759,2.129,1.144,3.378c-0.616,1.25-2.129,1.759-3.361,1.144
	c-1.918-0.95-4.1-1.091-6.141-0.405c-2.023,0.686-3.66,2.129-4.61,4.047c-0.563,1.144-0.827,2.358-0.827,3.554v3.959h9.959
	c1.267,0,2.288,1.021,2.288,2.288c0,1.267-1.021,2.287-2.288,2.287h-9.959V138.633z"/>
<g>
	<g>
		<rect x="264.445" y="162.194" fill="#008D54" width="21.536" height="21.536"/>
		<g>
			<path fill="#FFFFFF" d="M281.248,167.859c-1.337,0.792-1.76,0.845-3.185,1.707c0.827-0.915,1.126-1.303,1.653-2.059
				c-1.318,0.07-3.272,0.211-4.645,0.527l0,0l0,0l0,0c1.196-0.633,3.589-1.355,4.855-1.53c-0.299-0.404-2.656-1.689-3.236-1.918l0,0
				l0,0l0,0c1.864,0.141,4.152,0.844,5.261,1.514c0.439-0.142,0.896-0.142,1.688-0.212l0,0l0,0l0,0
				c-0.193,0.352-0.193,0.563-1.003,1.091l0,0l0,0l0,0c0.229,0.581-0.299,3.836-0.738,4.698l0,0l0,0l0,0
				C281.864,170.323,281.74,168.616,281.248,167.859z"/>
			<path fill="#FFFFFF" d="M271.519,179.508c-0.775-0.282-1.321-0.615-1.919-1.18l0,0l0,0l0,0l0,0l0,0l0,0l0,0l0,0l0,0l0,0l0,0l0,0
				l0,0l0,0l0,0l0,0l0,0l0,0l0,0l0,0l0,0l0,0l0,0l0,0l0,0l0,0l0,0l0,0l0,0l0,0l0,0c0.176-0.491,0.387-0.896,0.722-1.39l0,0l0,0l0,0
				l0,0l0,0l0,0l0,0l0,0l0,0l0,0l0,0l0,0l0,0l0,0l0,0l0,0l0,0l0,0l0,0l0,0l0,0l0,0l0,0l0,0l0,0l0,0l0,0l0,0l0,0l0,0l0,0
				c-0.615,0.088-1.073,0.159-1.618,0.265l0,0l0,0l0,0l0,0l0,0l0,0l0,0l0,0l0,0l0,0l0,0l0,0l0,0l0,0l0,0l0,0l0,0l0,0l0,0l0,0l0,0
				l0,0l0,0l0,0l0,0l0,0l0,0l0,0l0,0l0,0l0,0c-0.44-0.774-0.634-1.496-0.863-2.517l0,0l0,0l0,0l0,0l0,0l0,0l0,0l0,0l0,0l0,0l0,0l0,0
				l0,0l0,0l0,0c-0.105,1.072-0.158,1.848-0.017,2.71l0,0l0,0l0,0l0,0l0,0l0,0l0,0l0,0l0,0l0,0l0,0l0,0l0,0l0,0l0,0l0,0l0,0l0,0l0,0
				l0,0l0,0l0,0l0,0l0,0l0,0l0,0l0,0l0,0l0,0l0,0l0,0c-0.476,0.123-0.827,0.263-1.231,0.44l0,0l0,0l0,0l0,0l0,0l0,0l0,0l0,0l0,0l0,0
				l0,0l0,0l0,0l0,0l0,0l0,0l0,0l0,0l0,0l0,0l0,0l0,0l0,0l0,0l0,0l0,0l0,0l0,0l0,0l0,0l0,0c0.562,0.351,1.021,0.615,1.653,0.896l0,0
				l0,0l0,0l0,0l0,0l0,0l0,0l0,0l0,0l0,0l0,0l0,0l0,0l0,0l0,0l0,0l0,0l0,0l0,0l0,0l0,0l0,0l0,0l0,0l0,0l0,0l0,0l0,0l0,0l0,0l0,0
				c0.353,0.739,0.686,1.232,1.268,1.795l0,0l0,0l0,0l0,0l0,0l0,0l0,0l0,0l0,0l0,0l0,0l0,0l0,0l0,0l0,0l0,0l0,0l0,0l0,0l0,0l0,0l0,0
				l0,0l0,0l0,0l0,0l0,0l0,0l0,0l0,0l0,0c-0.142-0.474-0.177-0.862-0.124-1.354l0,0l0,0l0,0l0,0l0,0l0,0l0,0l0,0l0,0l0,0l0,0l0,0
				l0,0l0,0l0,0l0,0l0,0l0,0l0,0l0,0l0,0l0,0l0,0l0,0l0,0l0,0l0,0l0,0l0,0l0,0l0,0C270.11,179.384,270.726,179.49,271.519,179.508z"
				/>
			<path fill="#FFFFFF" d="M273.506,168.722L273.506,168.722L273.506,168.722L273.506,168.722L273.506,168.722
				c-0.247,0.299-0.527,0.88-0.598,1.144l0,0l0,0l0,0c1.971,0.281,3.554,1.284,3.554,1.284l0,0l0,0l0,0l0,0l0,0l0,0l0,0
				c-1.725-0.316-2.639-0.281-3.272-0.211l0,0l0,0l0,0c-0.651,0.053-0.774,0.141-0.774,0.141l0,0l0,0l0,0l0,0l0,0l0,0l0,0
				c-0.457,1.003-0.739,2.745-0.739,2.745l0,0l0,0l0,0l0,0l0,0l0,0l0,0c-0.316-0.739-0.773-2.271-0.773-2.271l0,0l0,0l0,0l0,0l0,0
				l0,0l0,0c-0.88,0.458-2.868,2.341-2.868,2.341l0,0l0,0l0,0l0,0l0,0l0,0l0,0c1.091-2.199,2.217-3.203,2.217-3.203l0,0l0,0l0,0l0,0
				l0,0l0,0l0,0c-0.37-0.386-1.39-0.579-2.129-0.615l0,0l0,0l0,0c0.387-0.158,1.372-0.335,2.111-0.369l0,0l0,0l0,0l0,0l0,0l0,0l0,0
				c0.739-0.035,1.214,0.018,1.214,0.018l0,0l0,0l0,0C272.134,169.214,273.153,168.757,273.506,168.722z"/>
			<path fill="#FFFFFF" d="M275.583,178.136c-0.352,0.474-0.651,0.844-1.021,1.284l0,0l0,0l0,0l0,0l0,0l0,0l0,0l0,0l0,0l0,0l0,0l0,0
				l0,0l0,0l0,0l0,0l0,0l0,0l0,0l0,0l0,0l0,0l0,0l0,0l0,0l0,0l0,0l0,0l0,0l0,0l0,0c-0.669,0.176-1.196,0.245-1.83,0.245l0,0l0,0l0,0
				l0,0l0,0l0,0l0,0l0,0l0,0l0,0l0,0l0,0l0,0l0,0l0,0l0,0l0,0l0,0l0,0l0,0l0,0l0,0l0,0l0,0l0,0l0,0l0,0l0,0l0,0l0,0l0,0
				c0.389,0.194,0.774,0.316,1.179,0.405l0,0l0,0l0,0l0,0l0,0l0,0l0,0l0,0l0,0l0,0l0,0l0,0l0,0l0,0l0,0l0,0l0,0l0,0l0,0l0,0l0,0l0,0
				l0,0l0,0l0,0l0,0l0,0l0,0l0,0l0,0l0,0c-0.404,0.388-0.757,0.651-1.161,0.915l0,0l0,0l0,0l0,0l0,0l0,0l0,0l0,0l0,0l0,0l0,0l0,0
				l0,0l0,0l0,0l0,0l0,0l0,0l0,0l0,0l0,0l0,0l0,0l0,0l0,0l0,0l0,0l0,0l0,0l0,0l0,0c0.688-0.176,1.565-0.458,2.217-0.845l0,0l0,0l0,0
				l0,0l0,0l0,0l0,0l0,0l0,0l0,0l0,0l0,0l0,0l0,0l0,0l0,0l0,0l0,0l0,0l0,0l0,0l0,0l0,0l0,0l0,0l0,0l0,0l0,0l0,0l0,0l0,0
				c0.335,0.019,0.67-0.018,0.898-0.053l0,0l0,0l0,0l0,0l0,0l0,0l0,0l0,0l0,0l0,0l0,0l0,0l0,0l0,0l0,0l0,0l0,0l0,0l0,0l0,0l0,0l0,0
				l0,0l0,0l0,0l0,0l0,0l0,0l0,0l0,0l0,0c-0.054-0.193-0.088-0.352-0.159-0.598l0,0l0,0l0,0l0,0l0,0l0,0l0,0l0,0l0,0l0,0l0,0l0,0
				l0,0l0,0l0,0l0,0l0,0l0,0l0,0l0,0l0,0l0,0l0,0l0,0l0,0l0,0l0,0l0,0l0,0l0,0l0,0c0.615-0.492,1.074-0.915,1.584-1.442l0,0l0,0l0,0
				l0,0l0,0l0,0l0,0l0,0l0,0l0,0l0,0l0,0l0,0l0,0l0,0l0,0l0,0l0,0l0,0l0,0l0,0l0,0l0,0l0,0l0,0l0,0l0,0l0,0l0,0l0,0l0,0
				c-0.545,0.386-1.021,0.667-1.653,0.967l0,0l0,0l0,0l0,0l0,0l0,0l0,0l0,0l0,0l0,0l0,0l0,0l0,0l0,0l0,0l0,0l0,0l0,0l0,0l0,0l0,0
				l0,0l0,0l0,0l0,0l0,0l0,0l0,0l0,0l0,0l0,0C275.617,178.715,275.617,178.47,275.583,178.136z"/>
		</g>
	</g>
</g>
<path d="M121.341,174.018c-0.035,0.774-0.088,2.411-0.105,3.36c-0.844,0.44-2.182,0.687-3.466,0.687c-2.92,0-4.803-1.829-4.803-4.1
	c0-2.393,1.953-4.188,5.155-4.188c0.739,0,1.83,0.123,2.604,0.316l-0.563,1.548c-0.545-0.352-1.443-0.615-2.059-0.615
	c-1.847,0-2.498,1.637-2.498,2.956c0,2.199,1.179,2.921,2.516,2.921c0.158,0,0.669-0.017,0.827-0.07c0-0.95-0.018-2.165-0.088-2.815
	H121.341z M122.89,169.971c0.124,0.81,0.124,2.41,0.124,3.748c0,1.566-0.018,2.974-0.158,4.135h2.622
	c-0.124-1.196-0.124-3.449-0.124-4.135c0-0.528,0.018-1.689,0.053-2.656c0.176-0.019,0.669-0.019,0.933-0.019
	c0.581,0,1.777,0.299,1.777,1.354c0,1.092-0.985,1.619-2.111,1.46c0.932,1.391,1.882,3.045,2.393,3.979h2.815
	c-0.387-0.405-2.305-2.887-2.534-3.309c1.144-0.458,1.865-1.161,1.865-2.13c0-1.829-2.059-2.445-3.783-2.445h-3.871V169.971z
	 M162.744,178.064c2.445,0,4.275-1.689,4.275-4.152c0-2.481-1.848-4.152-4.275-4.152c-2.465,0-4.294,1.671-4.294,4.152
	C158.432,176.375,160.279,178.064,162.744,178.064 M162.744,170.78c1.125,0,1.829,1.108,1.829,3.149
	c0,2.023-0.704,3.132-1.829,3.132c-1.144,0-1.865-1.092-1.865-3.132C160.879,171.889,161.601,170.78,162.744,170.78
	 M132.145,169.971c0.088,0.563,0.105,1.76,0.105,2.499v2.85c0,2.234,1.408,2.729,3.678,2.729c2.516,0,3.783-0.793,3.783-2.605
	v-2.234c0-1.267,0-2.551,0.088-3.255h-2.182c0.053,0.334,0.07,0.422,0.07,1.231v3.818c0,1.601-0.862,1.953-1.742,1.953
	c-1.003,0-1.337-0.598-1.337-1.619v-3.747c0-0.563,0.018-1.092,0.07-1.637h-2.534V169.971z M141.417,169.953
	c0.106,0.757,0.141,2.622,0.141,3.748c0,1.267-0.035,3.062-0.141,4.136h2.586c-0.07-0.739-0.053-2.078-0.123-3.169
	c0.141,0.019,0.616,0.019,0.792,0.019c2.956,0,4.435-0.792,4.435-2.411c0-1.83-2.077-2.305-3.766-2.305h-3.924V169.953z
	 M144.585,171.044c0.897,0,2.076,0.176,2.076,1.231c0,1.073-1.144,1.303-1.971,1.303c-0.264,0-0.668,0-0.756-0.019
	c-0.018-0.28-0.036-0.58-0.036-0.95c0-0.51,0.036-1.037,0.036-1.547L144.585,171.044z M150.021,169.953
	c0.105,0.757,0.142,2.622,0.142,3.748c0,1.267-0.036,3.062-0.142,4.136h2.588c-0.071-0.739-0.055-2.078-0.124-3.169
	c0.141,0.019,0.616,0.019,0.792,0.019c2.956,0,4.434-0.792,4.434-2.411c0-1.83-2.076-2.305-3.766-2.305h-3.924V169.953z
	 M153.188,171.044c0.898,0,2.077,0.176,2.077,1.231c0,1.073-1.144,1.303-1.971,1.303c-0.264,0-0.669,0-0.757-0.019
	c-0.018-0.28-0.034-0.58-0.034-0.95c0-0.51,0.034-1.037,0.034-1.547L153.188,171.044z M171.189,169.953
	c0.105,1.021,0.123,2.675,0.123,3.748c0,1.636-0.035,3.113-0.142,4.136h4.294c1.865,0,3.854-0.546,3.854-2.184
	c0-0.932-0.703-1.653-1.953-2.111c0.95-0.316,1.566-0.985,1.566-1.706c0-1.355-1.602-1.883-3.062-1.883H171.189L171.189,169.953z
	 M174.673,170.956c1.126,0,1.831,0.317,1.831,1.073c0,0.704-0.739,1.003-1.303,1.003h-0.476l-0.457,1.197h0.668
	c1.091,0,1.918,0.422,1.918,1.336c0,0.827-0.634,1.215-1.988,1.215h-1.144c-0.069-1.127-0.069-1.654-0.069-3.079
	c0-1.161,0.017-1.672,0.069-2.692C173.898,170.991,174.286,170.956,174.673,170.956 M185.863,169.971v4.575
	c-0.053-0.176-0.105-0.282-0.229-0.476l-2.516-4.1h-2.411c0.054,0.897,0.088,3.009,0.088,3.748c0,0.686-0.018,2.938-0.141,4.135
	h2.129c-0.088-0.668-0.105-2.022-0.105-2.974v-2.499c0.07,0.388,0.247,0.722,0.493,1.073l2.99,4.399h1.849
	c-0.105-1.073-0.124-3.431-0.124-4.135c0-0.774,0.054-2.851,0.124-3.748H185.863z M189.823,169.953
	c0.105,0.757,0.14,2.622,0.14,3.748c0,1.267-0.034,3.062-0.14,4.136h2.586c-0.07-0.739-0.053-2.078-0.105-3.169
	c0.123,0.019,0.615,0.019,0.792,0.019c2.974,0,4.435-0.792,4.435-2.411c0-1.83-2.06-2.305-3.784-2.305h-3.923V169.953z
	 M193.008,171.044c0.896,0,2.076,0.176,2.076,1.231c0,1.073-1.144,1.303-1.988,1.303c-0.265,0-0.669,0-0.774-0.019
	c0-0.28-0.018-0.58-0.018-0.95c0-0.51,0.018-1.037,0.018-1.547L193.008,171.044z M201.753,169.953
	c0.105,0.757,0.123,2.622,0.123,3.748c0,1.267-0.036,3.062-0.123,4.136h2.585c-0.069-0.739-0.052-2.078-0.122-3.169
	c0.141,0.019,0.616,0.019,0.792,0.019c2.974,0,4.434-0.792,4.434-2.411c0-1.83-2.059-2.305-3.782-2.305h-3.906V169.953z
	 M204.938,171.044c0.896,0,2.076,0.176,2.076,1.231c0,1.073-1.162,1.303-1.988,1.303c-0.265,0-0.669,0-0.757-0.019
	c-0.018-0.28-0.036-0.58-0.036-0.95c0-0.51,0.036-1.037,0.036-1.547L204.938,171.044z M212.204,169.971
	c-0.476,1.249-3.062,6.897-3.502,7.883h2.253c0.193-0.545,0.387-1.056,0.634-1.706c0.422-0.018,0.809-0.036,1.336-0.036
	c0.546,0,0.95,0,1.354,0.019c0.388,1.002,0.582,1.424,0.688,1.724h2.586c-0.598-1.267-3.202-6.951-3.501-7.883H212.204z
	 M213.822,174.933c-0.352,0.018-0.545,0.018-0.915,0.018c-0.263,0-0.65-0.018-0.95-0.018c0.229-0.669,0.704-1.689,0.915-2.376
	C213.102,173.208,213.523,174.158,213.822,174.933 M218.485,169.971c0.105,0.81,0.123,2.41,0.123,3.748
	c0,1.566-0.034,2.974-0.158,4.135h2.622c-0.124-1.196-0.124-3.449-0.124-4.135c0-0.528,0.019-1.689,0.054-2.656
	c0.176-0.019,0.669-0.019,0.933-0.019c0.58,0,1.795,0.299,1.795,1.354c0,1.092-0.986,1.619-2.112,1.46
	c0.933,1.391,1.883,3.045,2.393,3.979h2.815c-0.387-0.405-2.287-2.887-2.533-3.309c1.145-0.458,1.865-1.161,1.865-2.13
	c0-1.829-2.059-2.445-3.782-2.445h-3.89V169.971z M227.899,169.971c0.053,0.897,0.087,3.009,0.087,3.766
	c0,0.668-0.017,2.921-0.14,4.117h2.604c-0.106-1.073-0.106-3.431-0.106-4.117c0-0.757,0.036-2.868,0.106-3.766H227.899z
	 M232.157,169.953c0.105,1.021,0.123,2.675,0.123,3.748c0,1.636-0.036,3.113-0.142,4.136h4.276c1.865,0,3.854-0.546,3.854-2.184
	c0-0.932-0.704-1.653-1.953-2.111c0.933-0.316,1.565-0.985,1.565-1.706c0-1.355-1.601-1.883-3.062-1.883H232.157L232.157,169.953z
	 M235.641,170.956c1.145,0,1.83,0.317,1.83,1.073c0,0.704-0.738,1.003-1.303,1.003h-0.474l-0.458,1.197h0.669
	c1.091,0,1.936,0.422,1.936,1.336c0,0.827-0.651,1.215-1.989,1.215h-1.144c-0.069-1.127-0.069-1.654-0.069-3.079
	c0-1.161,0.017-1.672,0.069-2.692C234.885,170.991,235.271,170.956,235.641,170.956 M244.069,169.971
	c-0.457,1.249-3.062,6.897-3.484,7.883h2.252c0.193-0.545,0.404-1.056,0.634-1.706c0.422-0.018,0.81-0.036,1.338-0.036
	c0.544,0,0.949,0,1.337,0.019c0.387,1.002,0.58,1.424,0.686,1.724h2.587c-0.599-1.267-3.202-6.951-3.501-7.883H244.069z
	 M245.705,174.933c-0.353,0.018-0.545,0.018-0.896,0.018c-0.265,0-0.669-0.018-0.95-0.018c0.228-0.669,0.704-1.689,0.915-2.376
	C244.984,173.208,245.406,174.158,245.705,174.933 M253.482,169.76c-2.076,0-3.483,0.81-3.483,2.217c0,2.552,4.469,2.41,4.469,3.906
	c0,0.527-0.457,0.81-1.073,0.81c-0.756,0-1.636-0.246-3.29-1.039v1.918c0.704,0.266,1.724,0.477,2.815,0.477
	c2.41,0,3.853-0.986,3.853-2.534c0-2.376-4.486-2.394-4.486-3.73c0-0.264,0.07-0.615,0.95-0.615c1.126,0,1.971,0.422,2.833,0.914
	v-2.006C255.471,169.9,254.485,169.76,253.482,169.76"/>
</svg>
